<?xml version="1.0" encoding="utf-8"?>
<!-- Generator: Adobe Illustrator 21.1.0, SVG Export Plug-In . SVG Version: 6.00 Build 0)  -->
<svg version="1.1" id="Capa_1" xmlns="http://www.w3.org/2000/svg" xmlns:xlink="http://www.w3.org/1999/xlink" x="0px" y="0px"
	 viewBox="0 0 156.4 28" style="enable-background:new 0 0 156.4 28;" xml:space="preserve">
<style type="text/css">
	.st0{fill:#004155;}
	.st1{fill:#009A93;}
	.st2{fill:none;}
	.st3{fill:#0590B1;}
	.st4{fill:#0166A1;}
</style>
<title>logo_abhisoft_horizontal</title>
<g>
	<g>
		<g>
			<g>
				<path class="st0" d="M36.2,28h-3.1l5.6-14.2c0.3-0.8,0.7-1.3,1.3-1.6c0.5-0.3,1.2-0.5,2.1-0.5c0.8,0,1.5,0.2,2.1,0.5
					c0.5,0.3,1,0.8,1.2,1.6L50.7,28h-3.1l-4.8-12.9c-0.1-0.4-0.4-0.5-0.8-0.5c-0.4,0-0.6,0.2-0.8,0.5L36.2,28z"/>
				<path class="st0" d="M61.4,12c0.9,0,1.7,0.1,2.4,0.3c0.7,0.2,1.2,0.5,1.7,0.9c0.4,0.4,0.8,0.8,1,1.4c0.2,0.5,0.3,1.1,0.3,1.8
					c0,0.9-0.2,1.7-0.6,2.3c-0.4,0.6-1,1-1.7,1.3c0.8,0.3,1.3,0.8,1.7,1.4c0.4,0.6,0.6,1.4,0.6,2.3c0,0.6-0.1,1.2-0.3,1.8
					c-0.2,0.5-0.5,1-1,1.4c-0.4,0.4-1,0.7-1.7,0.9c-0.7,0.2-1.5,0.3-2.4,0.3h-7.1c-0.9,0-1.3-0.4-1.3-1.3V13.3
					c0-0.9,0.4-1.3,1.3-1.3H61.4z M55.8,18.7h5.7c1.6,0,2.5-0.6,2.5-1.9c0-0.6-0.2-1.1-0.6-1.5c-0.4-0.4-1-0.6-1.9-0.6h-5.4
					c-0.2,0-0.3,0.1-0.3,0.3V18.7z M55.8,24.9c0,0.2,0.1,0.3,0.3,0.3h5.4c0.8,0,1.5-0.2,1.9-0.5c0.4-0.4,0.6-0.9,0.6-1.5
					c0-1.4-0.8-2.1-2.5-2.1h-5.7V24.9z"/>
				<path class="st0" d="M72.8,12v6.5H81V12h2.8v16H81v-6.7h-8.1V28h-2.8V12H72.8z"/>
				<path class="st0" d="M90.4,12v16h-2.8V12H90.4z"/>
			</g>
			<g>
				<path class="st1" d="M106.5,12v2.8h-8.2c-0.7,0-1.2,0.2-1.6,0.5c-0.3,0.4-0.5,0.8-0.5,1.4c0,0.2,0,0.5,0.1,0.7
					c0.1,0.2,0.2,0.4,0.4,0.6c0.2,0.2,0.4,0.3,0.7,0.4c0.3,0.1,0.7,0.2,1.2,0.2h3.7c1.1,0,2,0.1,2.7,0.4c0.7,0.3,1.2,0.6,1.6,1.1
					c0.4,0.4,0.7,0.9,0.8,1.5c0.1,0.6,0.2,1.1,0.2,1.7c0,0.7-0.1,1.3-0.3,1.9c-0.2,0.6-0.5,1.1-0.9,1.5c-0.4,0.4-0.9,0.7-1.6,1
					c-0.6,0.2-1.4,0.4-2.3,0.4h-8.9v-2.8h9c0.8,0,1.3-0.2,1.7-0.6c0.4-0.4,0.5-0.8,0.5-1.4c0-0.3,0-0.5-0.1-0.7
					c-0.1-0.2-0.2-0.5-0.4-0.6c-0.2-0.2-0.4-0.3-0.8-0.4c-0.3-0.1-0.7-0.2-1.2-0.2h-3.7c-1.1,0-1.9-0.1-2.6-0.4
					c-0.7-0.3-1.2-0.6-1.6-1.1c-0.4-0.4-0.7-0.9-0.8-1.5c-0.1-0.6-0.2-1.1-0.2-1.7c0-0.7,0.1-1.3,0.3-1.8c0.2-0.6,0.5-1,0.9-1.5
					c0.4-0.4,0.9-0.7,1.5-1c0.6-0.2,1.4-0.3,2.3-0.3H106.5z"/>
				<path class="st1" d="M119.5,12c2.3,0,4.1,0.7,5.3,2c1.2,1.3,1.9,3.3,1.9,6c0,2.7-0.6,4.7-1.9,6c-1.2,1.3-3,2-5.3,2h-2.2
					c-2.3,0-4.1-0.7-5.3-2c-1.2-1.3-1.9-3.3-1.9-6c0-2.7,0.6-4.7,1.9-6c1.2-1.3,3-2,5.3-2H119.5z M117.3,14.8
					c-1.5,0-2.7,0.4-3.4,1.2c-0.7,0.8-1,2.2-1,4c0,1.8,0.3,3.2,1,4c0.7,0.8,1.8,1.2,3.4,1.2h2.2c1.5,0,2.6-0.4,3.3-1.2
					c0.7-0.8,1-2.1,1-4c0-1.8-0.3-3.2-1-4c-0.7-0.8-1.8-1.2-3.3-1.2H117.3z"/>
				<path class="st1" d="M142.3,12v2.8h-6.4c-0.6,0-1.2,0.1-1.6,0.2c-0.4,0.1-0.8,0.3-1,0.6c-0.3,0.2-0.4,0.5-0.5,0.9
					c-0.1,0.3-0.2,0.7-0.2,1.1V19h9.6v2.7h-9.6V28h-2.8V17.5c0-0.8,0.1-1.5,0.3-2.2c0.2-0.7,0.6-1.3,1-1.7c0.5-0.5,1.1-0.9,1.8-1.1
					c0.7-0.3,1.6-0.4,2.7-0.4H142.3z"/>
				<path class="st1" d="M156.4,12v2.8h-4.6V28H149V14.8h-4.6V12H156.4z"/>
			</g>
		</g>
	</g>
	<g>
		<polygon class="st2" points="20.6,11.6 21.2,11.1 21.2,11.1 20.6,11.6 		"/>
		<polygon class="st2" points="13.5,17.3 13.5,17.3 14.2,16.8 14.2,16.8 		"/>
		<path class="st3" d="M20.6,3.3c0-0.5-0.5-0.9-1.1-0.9h-4.3c-0.6,0-1.1,0.4-1.1,0.9v12.2l6.5-5.2V3.3z"/>
		<path class="st4" d="M27.7,0.9c0-0.5-0.5-0.9-1.1-0.9h-4.3c-0.6,0-1.1,0.4-1.1,0.9v8.9l6.5-5.2V0.9z"/>
		<path class="st1" d="M13.5,6.5c0-0.5-0.5-0.9-1.1-0.9H8.2C7.6,5.6,7.1,6,7.1,6.5v14.8l6.5-5.2V6.5z"/>
		<path class="st0" d="M6.5,17.7v-1.3V9.9c0-0.5-0.5-0.9-1.1-0.9H1.1C0.5,9.1,0,9.5,0,9.9v14.3v0.9V27l6.5-5.2V17.7z"/>
		<path class="st1" d="M1.1,28h4.3c0,0,0,0,0,0L1.1,28C1.1,28,1.1,28,1.1,28z"/>
		<path class="st4" d="M0.3,28c0,0,13.2,0,13.2,0l7.5-7.4l6.7,6.8c0-0.1,0-21.5,0-21.5L0.3,28z"/>
	</g>
</g>
</svg>
